<mxfile host="app.diagrams.net" agent="Mozilla/5.0 (Windows NT 10.0; Win64; x64) AppleWebKit/537.36 (KHTML, like Gecko) Chrome/139.0.0.0 Safari/537.36" version="28.1.2">
  <diagram name="Payment System Architecture" id="0">
    <mxGraphModel dx="1088" dy="601" grid="1" gridSize="10" guides="1" tooltips="1" connect="1" arrows="1" fold="1" page="1" pageScale="1" pageWidth="1920" pageHeight="1080" math="0" shadow="0">
      <root>
        <mxCell id="1" />
        <mxCell id="3" value="" style="group;rounded=1;dashed=1;arcSize=16;" parent="1" vertex="1">
          <mxGeometry x="40" y="20" width="1573.6996296296297" height="950" as="geometry" />
        </mxCell>
        <mxCell id="4" value="Client App" style="rounded=1;whiteSpace=wrap;html=1;" parent="3" vertex="1">
          <mxGeometry x="10.000370370370371" y="39.99571428571428" width="177.5925925925926" height="101.78571428571428" as="geometry" />
        </mxCell>
        <mxCell id="5" value="Auth Service" style="rounded=1;whiteSpace=wrap;html=1;" parent="3" vertex="1">
          <mxGeometry x="380" y="10" width="120" height="70" as="geometry" />
        </mxCell>
        <mxCell id="6" value="API Gateway (Spring Cloud Gateway) - Auth (JWT) - Rate limit - Idempotency-Key" style="rounded=1;whiteSpace=wrap;html=1;" parent="3" vertex="1">
          <mxGeometry x="399.9988888888889" y="118.75285714285714" width="405.9259259259259" height="135.71428571428572" as="geometry" />
        </mxCell>
        <mxCell id="7" value="Redis Idempotency Store (Request keys → status/result)" style="shape=cylinder;whiteSpace=wrap;html=1;boundedLbl=1;" parent="3" vertex="1">
          <mxGeometry x="9.998888888888906" y="200.00142857142856" width="228.33333333333334" height="118.75" as="geometry" />
        </mxCell>
        <mxCell id="8" value="User Service (Registration, Profiles)" style="rounded=1;whiteSpace=wrap;html=1;" parent="3" vertex="1">
          <mxGeometry x="12.69" y="380" width="190" height="80" as="geometry" />
        </mxCell>
        <mxCell id="9" value="Accounts &amp; Ledger Service (Java, Spring Boot) - Wallets &amp; balances (ACID) - Double-entry ledger - Transactional Outbox" style="rounded=1;whiteSpace=wrap;html=1;" parent="3" vertex="1">
          <mxGeometry x="329.81" y="390.18" width="320.19" height="79.82" as="geometry" />
        </mxCell>
        <mxCell id="10" value="History/Reporting Service (Read models, queries)" style="rounded=1;whiteSpace=wrap;html=1;" parent="3" vertex="1">
          <mxGeometry x="1370" y="768.61" width="191.57" height="74.38" as="geometry" />
        </mxCell>
        <mxCell id="11" value="Payment Orchestrator (Saga) - Top-ups - Cross-service flows - Retry/compensation" style="rounded=1;whiteSpace=wrap;html=1;" parent="3" vertex="1">
          <mxGeometry x="850" y="430" width="224.63" height="80" as="geometry" />
        </mxCell>
        <mxCell id="12" value="Fee Service (Commission rules)" style="rounded=1;whiteSpace=wrap;html=1;" parent="3" vertex="1">
          <mxGeometry x="149.81" y="600" width="180" height="90" as="geometry" />
        </mxCell>
        <mxCell id="13" value="Provider Adapter (PSP integration)" style="rounded=1;whiteSpace=wrap;html=1;" parent="3" vertex="1">
          <mxGeometry x="723.52" y="626.79" width="205.74" height="63.21" as="geometry" />
        </mxCell>
        <mxCell id="14" value="External Payment Provider (PSP)" style="dashed=1;rounded=1;whiteSpace=wrap;html=1;" parent="3" vertex="1">
          <mxGeometry x="714.0799999999999" y="775.8" width="220" height="60" as="geometry" />
        </mxCell>
        <mxCell id="15" value="Users DB (PostgreSQL)" style="shape=cylinder;whiteSpace=wrap;html=1;boundedLbl=1;" parent="3" vertex="1">
          <mxGeometry x="10.000370370370371" y="790.0042857142856" width="228.33333333333334" height="118.75" as="geometry" />
        </mxCell>
        <mxCell id="16" value="Ledger DB (PostgreSQL) Serializable isolation" style="shape=cylinder;whiteSpace=wrap;html=1;boundedLbl=1;" parent="3" vertex="1">
          <mxGeometry x="329.81481481481484" y="746.4285714285714" width="279.0740740740741" height="135.71428571428572" as="geometry" />
        </mxCell>
        <mxCell id="17" value="History DB (PostgreSQL)" style="shape=cylinder;whiteSpace=wrap;html=1;boundedLbl=1;" parent="3" vertex="1">
          <mxGeometry x="983.1514814814815" y="819.9985714285715" width="253.70370370370375" height="118.75" as="geometry" />
        </mxCell>
        <mxCell id="18" value="Kafka Cluster (operations log) - Topics: transactions, wallet-events - DLQ, Schema Registry" style="shape=process;whiteSpace=wrap;html=1;" parent="3" vertex="1">
          <mxGeometry x="1282.5" y="488.74" width="279.07" height="131.26" as="geometry" />
        </mxCell>
        <mxCell id="19" value="Secrets Vault (keys, DB creds)" style="rounded=1;whiteSpace=wrap;html=1;" parent="3" vertex="1">
          <mxGeometry x="1119.995925925926" y="118.75428571428571" width="253.70370370370375" height="101.78571428571428" as="geometry" />
        </mxCell>
        <mxCell id="21" value="Outbox (CDC)" style="rounded=1;whiteSpace=wrap;html=1;" parent="3" vertex="1">
          <mxGeometry x="1030.0040740740742" y="290.00142857142856" width="101.48148148148148" height="50.89285714285714" as="geometry" />
        </mxCell>
        <mxCell id="22" value="login / token" style="endArrow=block;endFill=1;html=1;" parent="3" source="4" target="5" edge="1">
          <mxGeometry relative="1" as_="geometry" as="geometry" />
        </mxCell>
        <mxCell id="23" value="REST/JSON with JWT" style="endArrow=block;endFill=1;html=1;" parent="3" source="4" target="6" edge="1">
          <mxGeometry relative="1" as_="geometry" as="geometry" />
        </mxCell>
        <mxCell id="24" value="Register user &amp; wallet" style="endArrow=block;endFill=1;html=1;" parent="3" source="6" target="8" edge="1">
          <mxGeometry relative="1" as_="geometry" as="geometry" />
        </mxCell>
        <mxCell id="25" value="Transfers, balance" style="endArrow=block;endFill=1;html=1;" parent="3" source="6" target="9" edge="1">
          <mxGeometry relative="1" as_="geometry" as="geometry" />
        </mxCell>
        <mxCell id="26" value="Top-up/initiate" style="endArrow=block;endFill=1;html=1;" parent="3" source="6" target="11" edge="1">
          <mxGeometry relative="1" as_="geometry" as="geometry" />
        </mxCell>
        <mxCell id="27" value="Idempotency-Key check/store" style="endArrow=block;endFill=1;html=1;" parent="3" source="6" target="7" edge="1">
          <mxGeometry relative="1" as_="geometry" as="geometry" />
        </mxCell>
        <mxCell id="28" value="JPA/ACID" style="endArrow=block;endFill=1;html=1;exitX=0.375;exitY=1.003;exitDx=0;exitDy=0;exitPerimeter=0;entryX=0.362;entryY=0.033;entryDx=0;entryDy=0;entryPerimeter=0;" parent="3" source="8" target="15" edge="1">
          <mxGeometry relative="1" as_="geometry" as="geometry">
            <mxPoint x="69.99917437529581" y="488.7485714285715" as="sourcePoint" />
            <mxPoint x="79.01008488396366" y="780.0042857142857" as="targetPoint" />
          </mxGeometry>
        </mxCell>
        <mxCell id="29" value="JDBC/ACID (SERIALIZABLE)" style="endArrow=block;endFill=1;html=1;" parent="3" source="9" target="16" edge="1">
          <mxGeometry relative="1" as_="geometry" as="geometry" />
        </mxCell>
        <mxCell id="30" value="ETL/Read models" style="endArrow=block;endFill=1;html=1;" parent="3" source="10" target="17" edge="1">
          <mxGeometry relative="1" as_="geometry" as="geometry" />
        </mxCell>
        <mxCell id="31" value="Create payment" style="endArrow=block;endFill=1;html=1;" parent="3" source="11" target="13" edge="1">
          <mxGeometry x="-0.0096" relative="1" as_="geometry" as="geometry">
            <mxPoint as="offset" />
          </mxGeometry>
        </mxCell>
        <mxCell id="32" value="" style="endArrow=block;endFill=1;html=1;" parent="3" source="13" target="14" edge="1">
          <mxGeometry relative="1" as_="geometry" as="geometry" />
        </mxCell>
        <mxCell id="33" value="Finalize credit on success" style="endArrow=block;endFill=1;html=1;" parent="3" source="11" target="9" edge="1">
          <mxGeometry relative="1" as_="geometry" as="geometry" />
        </mxCell>
        <mxCell id="34" value="Calculate fee" style="endArrow=block;endFill=1;html=1;" parent="3" source="9" target="12" edge="1">
          <mxGeometry x="-0.0911" y="-7" relative="1" as_="geometry" as="geometry">
            <mxPoint as="offset" />
          </mxGeometry>
        </mxCell>
        <mxCell id="35" value="Fee applied" style="endArrow=block;endFill=1;html=1;" parent="3" source="12" target="9" edge="1">
          <mxGeometry x="-0.4355" y="2" relative="1" as_="geometry" as="geometry">
            <mxPoint as="offset" />
          </mxGeometry>
        </mxCell>
        <mxCell id="36" value="Local TX write" style="endArrow=block;endFill=1;html=1;" parent="3" source="9" target="21" edge="1">
          <mxGeometry relative="1" as_="geometry" as="geometry" />
        </mxCell>
        <mxCell id="37" value="CDC → Kafka" style="endArrow=block;endFill=1;html=1;" parent="3" source="21" target="18" edge="1">
          <mxGeometry relative="1" as_="geometry" as="geometry" />
        </mxCell>
        <mxCell id="38" value="Consume events (exactly-once w/ idempotency)" style="endArrow=block;endFill=1;html=1;" parent="3" source="18" target="10" edge="1">
          <mxGeometry relative="1" as_="geometry" as="geometry" />
        </mxCell>
        <mxCell id="39" value="Fetch secrets" style="dashed=1;endArrow=block;endFill=1;html=1;" parent="3" source="19" target="6" edge="1">
          <mxGeometry relative="1" as_="geometry" as="geometry" />
        </mxCell>
        <mxCell id="40" value="DB creds/keys" style="dashed=1;endArrow=block;endFill=1;html=1;" parent="3" source="19" target="9" edge="1">
          <mxGeometry relative="1" as_="geometry" as="geometry" />
        </mxCell>
      </root>
    </mxGraphModel>
  </diagram>
</mxfile>
